<?xml version="1.0" encoding="UTF-8" standalone="no"?><!DOCTYPE svg PUBLIC "-//W3C//DTD SVG 1.1//EN" "http://www.w3.org/Graphics/SVG/1.1/DTD/svg11.dtd"><svg width="100%" height="100%" viewBox="0 0 640 512" version="1.1" xmlns="http://www.w3.org/2000/svg" xmlns:xlink="http://www.w3.org/1999/xlink" xml:space="preserve" xmlns:serif="http://www.serif.com/" style="fill-rule:evenodd;clip-rule:evenodd;stroke-linejoin:round;stroke-miterlimit:1.41421;"><rect id="network" x="0" y="0" width="640" height="512" style="fill:none;"/><clipPath id="_clip1"><rect id="network1" serif:id="network" x="0" y="0" width="640" height="512"/></clipPath><g clip-path="url(#_clip1)"><path d="M640,264l0,-16c0,-8.84 -7.16,-16 -16,-16l-280,0l0,-40l72,0c17.67,0 32,-14.33 32,-32l0,-128c0,-17.67 -14.33,-32 -32,-32l-192,0c-17.67,0 -32,14.33 -32,32l0,128c0,17.67 14.33,32 32,32l72,0l0,40l-280,0c-8.84,0 -16,7.16 -16,16l0,16c0,8.84 7.16,16 16,16l104,0l0,40l-56,0c-17.67,0 -32,14.33 -32,32l0,128c0,17.67 14.33,32 32,32l160,0c17.67,0 32,-14.33 32,-32l0,-128c0,-17.67 -14.33,-32 -32,-32l-56,0l0,-40l304,0l0,40l-56,0c-17.67,0 -32,14.33 -32,32l0,128c0,17.67 14.33,32 32,32l160,0c17.67,0 32,-14.33 32,-32l0,-128c0,-17.67 -14.33,-32 -32,-32l-56,0l0,-40l104,0c8.84,0 16,-7.16 16,-16Zm-384,-136l0,-64l128,0l0,64l-128,0Zm-64,320l-96,0l0,-64l96,0l0,64Zm352,0l-96,0l0,-64l96,0l0,64Z" style="fill:#fff;fill-rule:nonzero;"/></g></svg>