<?xml version="1.0" encoding="UTF-8" standalone="no"?><!DOCTYPE svg PUBLIC "-//W3C//DTD SVG 1.1//EN" "http://www.w3.org/Graphics/SVG/1.1/DTD/svg11.dtd"><svg width="100%" height="100%" viewBox="0 0 512 512" version="1.1" xmlns="http://www.w3.org/2000/svg" xmlns:xlink="http://www.w3.org/1999/xlink" xml:space="preserve" xmlns:serif="http://www.serif.com/" style="fill-rule:evenodd;clip-rule:evenodd;stroke-linejoin:round;stroke-miterlimit:1.41421;"><rect id="wizard-hat" x="0" y="0" width="512" height="512" style="fill:none;"/><clipPath id="_clip1"><rect id="wizard-hat1" serif:id="wizard-hat" x="0" y="0" width="512" height="512"/></clipPath><g clip-path="url(#_clip1)"><path d="M496,448l-480,0c-8.84,0 -16,7.16 -16,16l0,32c0,8.84 7.16,16 16,16l480,0c8.84,0 16,-7.16 16,-16l0,-32c0,-8.84 -7.16,-16 -16,-16Zm-304,-64l-64,-32l64,-32l32,-64l32,64l64,32l-64,32l-16,32l208,0l-86.41,-201.63c-6.177,-14.402 -6.85,-30.585 -1.89,-45.45l56.3,-168.92l-187.58,107.19c-23.659,13.52 -42.394,34.248 -53.46,59.15l-110.96,249.66l144,0l-16,-32Zm64,-224l16,-32l16,32l32,16l-32,16l-16,32l-16,-32l-32,-16l32,-16Z" style="fill:#fff;fill-rule:nonzero;"/></g></svg>