<?xml version="1.0" encoding="UTF-8" standalone="no"?><!DOCTYPE svg PUBLIC "-//W3C//DTD SVG 1.1//EN" "http://www.w3.org/Graphics/SVG/1.1/DTD/svg11.dtd"><svg width="100%" height="100%" viewBox="0 0 375 387" version="1.1" xmlns="http://www.w3.org/2000/svg" xmlns:xlink="http://www.w3.org/1999/xlink" xml:space="preserve" xmlns:serif="http://www.serif.com/" style="fill-rule:evenodd;clip-rule:evenodd;stroke-linejoin:round;stroke-miterlimit:1.41421;"><rect id="favicon-v1" x="0" y="0" width="374.64" height="387" style="fill:none;"/><clipPath id="_clip1"><rect x="0" y="0" width="374.64" height="387"/></clipPath><g clip-path="url(#_clip1)"><path d="M0.897,244.842c4.508,2.213 9.077,4.287 13.73,6.15c52.026,20.822 117.251,20.672 167.388,-9.083c15.255,-9.054 28.213,-21.159 43.477,-29.607c8.799,-4.87 18.756,-7.453 28.783,-8.391c8.399,-0.787 16.914,-0.736 25.244,0.545c36.45,5.608 62.211,31.428 91.385,50.846c-25.81,76.528 -98.215,131.698 -183.404,131.698c-89.023,0 -164.085,-60.247 -186.603,-142.158Zm0.188,-103.362c22.745,-81.565 97.638,-141.48 186.415,-141.48c91.017,0 167.442,62.977 188.037,147.696c-7.931,-5.175 -16.066,-10.035 -24.536,-14.277c-26.32,-13.181 -55.452,-20.686 -84.81,-20.863c-0.656,-0.002 -1.311,-0.001 -1.967,0.002c-27.806,0.219 -55.653,5.911 -80.02,18.811c-18.239,9.655 -32.804,23.504 -49.983,33.261c-17.234,9.788 -38.069,11.503 -57.814,9.219c-28.298,-3.275 -51.016,-19.465 -75.322,-32.369Z" style="fill:#fff;"/></g></svg>