<?xml version="1.0" encoding="UTF-8" standalone="no"?><!DOCTYPE svg PUBLIC "-//W3C//DTD SVG 1.1//EN" "http://www.w3.org/Graphics/SVG/1.1/DTD/svg11.dtd"><svg width="100%" height="100%" viewBox="0 0 352 513" version="1.1" xmlns="http://www.w3.org/2000/svg" xmlns:xlink="http://www.w3.org/1999/xlink" xml:space="preserve" xmlns:serif="http://www.serif.com/" style="fill-rule:evenodd;clip-rule:evenodd;stroke-linejoin:round;stroke-miterlimit:1.41421;"><rect id="lightbulb" x="0" y="0" width="352" height="512.011" style="fill:none;"/><clipPath id="_clip1"><rect id="lightbulb1" serif:id="lightbulb" x="0" y="0" width="352" height="512.011"/></clipPath><g clip-path="url(#_clip1)"><path d="M96.06,454.351c0.01,6.29 1.87,12.45 5.36,17.69l17.09,25.69c5.924,8.911 15.94,14.28 26.64,14.28l61.71,0c10.7,0 20.716,-5.369 26.64,-14.28l17.09,-25.69c3.488,-5.24 5.353,-11.395 5.36,-17.69l0.04,-38.35l-159.98,0l0.05,38.35Zm-96.06,-278.35c0,44.37 16.45,84.85 43.56,115.78c16.52,18.85 42.36,58.23 52.21,91.45c0.04,0.26 0.07,0.52 0.11,0.78l160.24,0c0.04,-0.26 0.07,-0.51 0.11,-0.78c9.85,-33.22 35.69,-72.6 52.21,-91.45c27.11,-30.93 43.56,-71.41 43.56,-115.78c0,-97.39 -79.09,-176.3 -176.55,-176c-102.01,0.31 -175.45,82.97 -175.45,176Zm176,-80c-44.11,0 -80,35.89 -80,80c0,8.84 -7.16,16 -16,16c-8.84,0 -16,-7.16 -16,-16c0,-61.76 50.24,-112 112,-112c8.84,0 16,7.16 16,16c0,8.84 -7.16,16 -16,16Z" style="fill:#fff;fill-rule:nonzero;"/></g></svg>